{"glyphs":{"0":{"ha":754,"x_min":0,"x_max":0,"o":"m 377 865 b 43 427 202 865 43 733 b 377 -13 43 120 202 -13 b 710 427 551 -13 710 120 b 377 865 710 733 551 865 z m 377 100 b 157 427 207 100 157 260 b 377 753 157 593 207 753 b 597 427 547 753 597 593 b 377 100 597 260 547 100 z "},"1":{"ha":383,"x_min":0,"x_max":0,"o":"m 207 609 l 207 0 l 323 0 l 323 844 l 219 844 b 10 681 219 844 234 681 b 10 607 10 616 10 607 b 207 609 10 607 80 609 z "},"2":{"ha":706,"x_min":0,"x_max":0,"o":"m 183 123 b 658 622 187 285 665 351 b 369 861 653 806 496 861 b 63 585 186 861 77 745 l 182 585 b 366 748 191 673 240 748 b 541 612 475 748 545 695 b 34 0 532 405 6 385 l 665 0 l 665 123 z "},"3":{"ha":731,"x_min":0,"x_max":0,"o":"m 531 453 b 653 633 599 483 653 537 b 360 865 653 788 519 865 b 53 641 194 865 72 785 l 175 641 b 357 758 189 710 235 758 b 535 618 510 758 535 681 b 367 497 535 556 481 497 l 264 497 l 264 392 l 366 392 b 561 264 490 392 561 345 b 364 108 561 181 529 108 b 155 236 206 108 162 170 l 32 236 b 363 -13 38 82 168 -13 b 688 261 551 -13 688 78 b 531 453 688 377 617 430 z "},"4":{"ha":750,"x_min":0,"x_max":0,"o":"m 727 189 l 727 297 l 595 297 l 595 844 l 425 844 l 22 308 l 22 189 l 478 189 l 478 1 l 595 1 l 595 189 z m 160 303 l 474 725 l 474 303 z "},"5":{"ha":717,"x_min":0,"x_max":0,"o":"m 404 558 b 176 493 298 558 228 535 l 207 727 l 628 727 l 628 848 l 124 848 l 57 367 l 166 367 b 370 462 194 397 274 462 b 549 295 507 462 549 393 b 360 102 549 205 516 102 b 162 225 224 102 176 160 l 40 225 b 360 -13 56 78 191 -13 b 676 296 556 -13 676 112 b 404 558 676 490 544 558 z "},"6":{"ha":739,"x_min":0,"x_max":0,"o":"m 404 572 b 148 433 282 572 179 528 b 375 753 148 643 199 753 b 557 647 500 753 545 699 l 680 647 b 375 865 665 791 524 865 b 44 414 168 865 44 723 b 375 -13 44 123 159 -13 b 695 288 531 -13 695 71 b 404 572 695 478 575 572 z m 375 102 b 176 276 257 102 176 170 b 394 470 176 382 248 470 b 584 286 511 470 584 399 b 375 102 584 172 505 102 z "},"7":{"ha":649,"x_min":0,"x_max":0,"o":"m 6 844 l 6 723 l 529 723 b 146 1 405 612 172 351 l 284 1 b 638 719 322 419 542 624 l 638 844 z "},"8":{"ha":767,"x_min":0,"x_max":0,"o":"m 558 454 b 687 632 630 477 687 525 b 383 865 685 797 566 865 b 79 632 200 865 81 797 b 209 454 79 525 136 477 b 42 247 112 431 42 375 b 383 -13 42 60 190 -13 b 725 247 576 -13 725 60 b 558 454 725 375 653 431 z m 383 101 b 159 254 222 101 159 158 b 383 404 159 345 218 404 b 607 254 549 404 607 345 b 383 101 607 158 545 101 z m 383 752 b 577 621 531 752 577 699 b 383 495 577 534 516 495 b 188 622 250 495 188 534 b 383 752 188 699 235 752 z "},"9":{"ha":732,"x_min":0,"x_max":0,"o":"m 364 865 b 43 565 208 865 43 782 b 335 281 43 375 163 281 b 581 410 456 281 551 315 b 364 100 588 252 539 100 b 172 206 238 100 183 153 l 57 206 b 364 -13 73 61 215 -13 b 685 437 571 -13 685 129 b 364 865 685 729 579 865 z m 348 383 b 155 568 228 383 155 453 b 368 751 155 681 234 751 b 561 577 483 751 561 683 b 348 383 561 470 497 383 z "},"\u0000":{"ha":0,"x_min":0,"x_max":0,"o":""},"\n":{"ha":0,"x_min":0,"x_max":0,"o":""},"\r":{"ha":0,"x_min":0,"x_max":0,"o":""}," ":{"ha":342,"x_min":0,"x_max":0,"o":""},"!":{"ha":233,"x_min":0,"x_max":0,"o":"m 115 128 b 46 55 78 128 46 95 b 115 -18 46 14 78 -18 b 186 55 154 -18 186 14 b 115 128 186 95 154 128 z m 154 285 l 179 843 l 53 843 l 78 285 z "},"\"":{"ha":456,"x_min":0,"x_max":0,"o":"m 46 463 l 128 463 l 161 847 l 12 847 z m 295 847 l 328 463 l 410 463 l 443 847 z "},"#":{"ha":846,"x_min":0,"x_max":0,"o":"m 663 517 l 817 517 l 817 597 l 682 597 l 739 821 l 642 821 l 587 597 l 363 597 l 418 821 l 323 821 l 266 597 l 89 597 l 89 517 l 247 517 l 194 304 l 28 304 l 28 224 l 174 224 l 118 0 l 213 0 l 270 224 l 494 224 l 439 0 l 534 0 l 589 224 l 756 224 l 756 304 l 610 304 l 663 517 z m 514 304 l 289 304 l 342 517 l 568 517 z "},"$":{"ha":800,"x_min":0,"x_max":0,"o":"m 761 257 b 437 490 761 421 640 457 b 432 491 436 491 435 491 l 432 736 b 597 611 548 724 592 666 l 726 611 b 432 862 726 725 646 847 l 432 983 l 365 983 l 365 863 b 60 605 145 856 60 748 b 313 370 60 468 141 403 b 365 361 331 367 348 364 l 365 112 b 170 253 242 123 174 176 l 36 253 b 365 -13 36 111 130 -1 l 365 -133 l 432 -133 l 432 -14 b 761 257 667 -7 761 103 z m 187 616 b 365 738 187 679 223 733 l 365 502 b 187 616 254 520 187 540 z m 432 111 l 432 350 b 631 239 558 331 631 319 b 432 111 631 153 555 115 z "},"%":{"ha":1094,"x_min":0,"x_max":0,"o":"m 444 617 b 236 858 444 762 372 858 b 29 617 101 858 29 762 b 236 375 29 471 101 375 b 444 617 372 375 444 471 z m 236 463 b 128 617 159 463 128 523 b 236 770 128 710 159 770 b 345 617 314 770 345 710 b 236 463 345 523 314 463 z m 732 841 l 275 -3 l 361 -3 l 818 841 z m 856 464 b 649 222 721 464 649 367 b 856 -19 649 77 721 -19 b 1064 222 992 -19 1064 77 b 856 464 1064 367 992 464 z m 856 69 b 748 222 779 69 748 129 b 856 376 748 316 779 376 b 964 222 934 376 964 316 b 856 69 964 129 934 69 z "},"&":{"ha":869,"x_min":0,"x_max":0,"o":"m 721 -5 l 869 -5 b 703 153 822 41 764 95 b 769 392 748 224 769 308 l 673 392 b 632 218 673 331 661 270 b 454 385 573 274 511 331 b 399 436 435 403 416 419 b 643 656 524 462 643 515 b 387 855 643 789 540 855 b 142 644 241 855 142 782 b 222 465 142 579 167 529 b 32 233 116 432 32 369 b 365 -22 32 79 159 -22 b 636 72 482 -22 571 14 b 721 -5 662 48 691 22 z m 377 77 b 144 245 213 77 144 159 b 281 402 144 326 188 377 b 355 331 303 380 328 357 b 566 136 414 274 477 216 b 377 77 518 100 457 77 z m 387 756 b 534 648 496 756 534 705 b 330 497 534 554 423 517 b 251 639 283 543 251 586 b 387 756 251 700 288 756 z "},"'":{"ha":175,"x_min":0,"x_max":0,"o":"m 13 841 l 46 457 l 128 457 l 161 841 z "},"(":{"ha":431,"x_min":0,"x_max":0,"o":"m 379 962 l 296 962 b 42 412 207 879 42 713 b 296 -137 42 111 207 -56 l 379 -137 b 186 412 293 -45 186 148 b 379 962 186 676 293 869 z "},")":{"ha":431,"x_min":0,"x_max":0,"o":"m 134 973 l 51 973 b 244 423 137 880 244 687 b 51 -126 244 159 137 -34 l 134 -126 b 388 423 223 -44 388 122 b 134 973 388 724 223 890 z "},"*":{"ha":457,"x_min":0,"x_max":0,"o":"m 468 638 l 439 725 l 254 644 l 273 846 l 183 846 l 202 644 l 16 725 l -13 638 l 185 594 l 51 443 l 125 389 l 227 564 l 331 389 l 405 443 l 271 594 z "},"+":{"ha":551,"x_min":0,"x_max":0,"o":"m 529 483 l 327 483 l 327 686 l 223 686 l 223 483 l 21 483 l 21 380 l 223 380 l 223 176 l 327 176 l 327 380 l 529 380 z "},",":{"ha":238,"x_min":0,"x_max":0,"o":"m 72 123 l 24 -167 l 103 -167 l 220 123 z "},"-":{"ha":625,"x_min":0,"x_max":0,"o":"m 13 467 l 13 357 l 611 357 l 611 467 z "},".":{"ha":199,"x_min":0,"x_max":0,"o":"m 100 157 b 17 75 54 157 17 121 b 100 -7 17 29 54 -7 b 182 75 144 -7 182 29 b 100 157 182 121 144 157 z "},"/":{"ha":529,"x_min":0,"x_max":0,"o":"m 397 844 l 3 0 l 130 0 l 524 844 z "},":":{"ha":224,"x_min":0,"x_max":0,"o":"m 112 505 b 194 587 157 505 194 543 b 112 670 194 633 157 670 b 29 587 67 670 29 633 b 112 505 29 543 67 505 z m 112 157 b 29 75 67 157 29 121 b 112 -7 29 29 67 -7 b 194 75 157 -7 194 29 b 112 157 194 121 157 157 z "},";":{"ha":263,"x_min":0,"x_max":0,"o":"m 31 -126 l 110 -126 l 226 163 l 78 163 z m 152 480 b 234 562 198 480 234 517 b 152 645 234 608 198 645 b 70 562 106 645 70 608 b 152 480 70 517 106 480 z "},"<":{"ha":497,"x_min":0,"x_max":0,"o":"m 465 672 l 24 454 l 24 351 l 465 133 l 465 236 l 134 402 l 465 570 z "},"=":{"ha":561,"x_min":0,"x_max":0,"o":"m 25 597 l 25 485 l 535 485 l 535 597 z m 25 247 l 535 247 l 535 359 l 25 359 z "},">":{"ha":497,"x_min":0,"x_max":0,"o":"m 32 679 l 32 577 l 364 409 l 32 243 l 32 140 l 473 358 l 473 461 z "},"?":{"ha":631,"x_min":0,"x_max":0,"o":"m 311 855 b 17 594 156 855 34 773 l 122 594 b 311 752 132 684 181 752 b 495 624 439 752 495 699 b 247 280 495 448 247 506 l 343 280 b 602 613 343 432 602 390 b 311 855 602 780 476 855 z m 298 123 b 229 51 260 123 229 91 b 298 -22 229 10 260 -22 b 369 51 337 -22 369 10 b 298 123 369 91 337 123 z "},"@":{"ha":1253,"x_min":0,"x_max":0,"o":"m 640 877 b 43 290 272 877 43 652 b 660 -300 43 -63 291 -300 b 948 -237 795 -300 904 -260 l 954 -234 l 954 -121 l 936 -133 b 660 -203 908 -150 824 -203 b 146 289 343 -203 146 -14 b 640 780 146 601 326 780 b 1112 362 931 780 1112 620 b 980 98 1112 194 1064 98 b 903 234 909 98 903 157 l 903 568 l 773 568 l 773 513 b 597 583 729 559 669 583 b 322 283 433 583 322 462 b 599 -17 322 104 433 -17 b 810 101 695 -17 767 24 b 969 -7 836 32 892 -7 b 1210 362 1120 -7 1210 131 b 640 877 1210 679 991 877 z m 788 283 b 620 100 788 169 725 100 b 454 283 476 100 454 215 b 620 467 454 352 476 467 b 788 283 725 467 788 398 z "},"A":{"ha":813,"x_min":0,"x_max":0,"o":"m 683 0 l 819 0 l 487 844 l 324 844 l -8 0 l 128 0 l 200 188 l 610 188 z m 248 313 l 405 727 l 563 313 z "},"B":{"ha":775,"x_min":0,"x_max":0,"o":"m 613 439 l 613 445 b 715 628 681 477 715 536 b 477 844 715 767 649 844 l 60 844 l 60 0 l 464 0 b 742 248 668 0 742 95 b 613 439 742 352 697 410 z m 186 720 l 475 720 b 595 601 564 720 595 674 b 475 485 595 534 568 485 l 186 485 z m 479 124 l 186 124 l 186 369 l 479 369 b 613 256 575 369 613 328 b 479 124 613 183 588 124 z "},"C":{"ha":828,"x_min":0,"x_max":0,"o":"m 421 106 b 158 422 249 106 158 228 b 421 736 158 616 249 736 b 671 509 588 736 651 620 l 803 509 b 421 861 770 747 609 861 b 28 422 222 861 28 734 b 421 -18 28 110 222 -18 b 803 334 609 -18 770 95 l 671 334 b 421 106 651 223 588 106 z "},"D":{"ha":788,"x_min":0,"x_max":0,"o":"m 336 844 l 60 844 l 60 0 l 336 0 b 759 422 568 0 759 94 b 336 844 759 750 568 844 z m 321 125 l 186 125 l 186 718 l 321 718 b 630 422 516 718 630 639 b 321 125 630 204 517 125 z "},"E":{"ha":690,"x_min":0,"x_max":0,"o":"m 660 0 l 660 125 l 186 125 l 186 370 l 621 370 l 621 497 l 186 497 l 186 718 l 651 718 l 651 844 l 60 844 l 60 0 z "},"F":{"ha":665,"x_min":0,"x_max":0,"o":"m 651 718 l 651 844 l 60 844 l 60 0 l 186 0 l 186 347 l 622 347 l 622 474 l 186 474 l 186 718 z "},"G":{"ha":868,"x_min":0,"x_max":0,"o":"m 824 458 l 448 458 l 448 333 l 659 333 b 428 106 659 224 573 106 b 156 422 249 106 156 236 b 430 736 156 606 259 736 b 671 574 577 736 641 656 l 806 574 b 430 861 759 759 617 861 b 26 422 223 861 26 714 b 427 -18 26 130 197 -18 b 715 188 565 -18 678 51 l 720 188 l 729 0 l 824 0 z "},"H":{"ha":839,"x_min":0,"x_max":0,"o":"m 653 844 l 653 497 l 186 497 l 186 844 l 60 844 l 60 0 l 186 0 l 186 370 l 653 370 l 653 0 l 779 0 l 779 844 z "},"I":{"ha":246,"x_min":0,"x_max":0,"o":"m 60 844 l 60 0 l 186 0 l 186 844 z "},"J":{"ha":693,"x_min":0,"x_max":0,"o":"m 517 844 l 517 363 b 331 106 517 192 475 106 b 137 342 196 106 137 172 l 137 376 l 10 376 l 10 328 b 331 -18 10 101 104 -18 b 643 363 539 -18 643 80 l 643 844 z "},"K":{"ha":775,"x_min":0,"x_max":0,"o":"m 621 0 l 779 0 l 458 512 l 763 844 l 588 844 l 186 393 l 186 844 l 60 844 l 60 0 l 186 0 l 186 216 l 366 412 z "},"L":{"ha":644,"x_min":0,"x_max":0,"o":"m 651 0 l 651 125 l 186 125 l 186 844 l 60 844 l 60 0 z "},"M":{"ha":1049,"x_min":0,"x_max":0,"o":"m 789 844 l 524 131 l 258 844 l 60 844 l 60 0 l 186 0 l 186 724 l 456 0 l 592 0 l 863 724 l 863 0 l 989 0 l 989 844 z "},"N":{"ha":829,"x_min":0,"x_max":0,"o":"m 643 844 l 643 177 l 210 844 l 60 844 l 60 0 l 187 0 l 187 667 l 618 0 l 768 0 l 768 844 z "},"O":{"ha":881,"x_min":0,"x_max":0,"o":"m 440 861 b 26 422 216 861 26 714 b 440 -18 26 130 216 -18 b 853 422 663 -18 853 130 b 440 861 853 714 663 861 z m 440 106 b 156 422 258 106 156 234 b 440 736 156 609 258 736 b 723 422 621 736 723 609 b 440 106 723 234 621 106 z "},"P":{"ha":728,"x_min":0,"x_max":0,"o":"m 453 844 l 60 844 l 60 0 l 186 0 l 186 286 l 434 286 b 712 565 631 286 712 404 b 453 844 712 710 648 844 z m 434 410 l 186 410 l 186 718 l 432 718 b 582 565 538 718 582 660 b 434 410 582 477 544 410 z "},"Q":{"ha":885,"x_min":0,"x_max":0,"o":"m 852 0 l 756 121 b 852 422 815 193 852 294 b 439 861 852 714 662 861 b 26 422 216 861 26 714 b 439 -18 26 130 216 -18 b 677 51 526 -18 609 5 l 717 0 z m 439 106 b 155 422 258 106 155 234 b 439 736 155 609 258 736 b 723 422 620 736 723 609 b 673 225 723 345 705 277 l 598 318 l 517 250 l 598 149 b 439 106 555 122 502 106 z "},"R":{"ha":747,"x_min":0,"x_max":0,"o":"m 443 324 b 583 204 488 324 585 311 b 591 0 582 130 583 46 b 727 0 633 0 692 0 b 718 235 716 43 718 170 b 569 384 718 344 627 384 b 721 581 660 399 721 462 b 461 844 721 743 639 844 l 60 844 l 60 0 l 186 0 l 186 324 z m 186 718 l 436 718 b 592 571 538 718 592 674 b 436 448 592 471 535 448 l 186 448 z "},"S":{"ha":778,"x_min":0,"x_max":0,"o":"m 427 487 b 177 614 273 512 177 522 b 374 735 177 679 214 735 b 587 609 527 735 581 670 l 716 609 b 377 861 716 729 623 861 b 50 603 141 861 50 750 b 302 368 50 465 129 400 b 620 236 501 329 620 337 b 403 107 620 146 536 107 b 160 251 248 107 164 163 l 25 251 b 399 -18 25 99 132 -18 b 751 254 650 -18 751 95 b 426 487 751 418 629 454 z "},"T":{"ha":656,"x_min":0,"x_max":0,"o":"m 662 718 l 662 844 l -7 844 l -7 718 l 264 718 l 264 0 l 390 0 l 390 718 z "},"U":{"ha":781,"x_min":0,"x_max":0,"o":"m 603 844 l 603 347 b 390 106 603 175 539 106 b 176 347 242 106 176 175 l 176 844 l 50 844 l 50 336 b 390 -18 50 41 216 -18 b 730 336 563 -18 730 41 l 730 844 z "},"V":{"ha":808,"x_min":0,"x_max":0,"o":"m 681 844 l 404 117 l 127 844 l -10 844 l 322 0 l 486 0 l 818 844 z "},"W":{"ha":1160,"x_min":0,"x_max":0,"o":"m 1018 844 l 824 146 l 638 844 l 521 844 l 336 146 l 142 844 l -4 844 l 250 0 l 414 0 l 580 624 l 746 0 l 910 0 l 1163 844 z "},"X":{"ha":774,"x_min":0,"x_max":0,"o":"m 468 440 l 752 844 l 591 844 l 387 541 l 183 844 l 21 844 l 306 440 l -6 0 l 157 0 l 387 339 l 616 0 l 779 0 z "},"Y":{"ha":758,"x_min":0,"x_max":0,"o":"m 621 844 l 379 439 l 136 844 l -17 844 l 316 311 l 316 0 l 442 0 l 442 311 l 774 844 z "},"Z":{"ha":713,"x_min":0,"x_max":0,"o":"m 199 125 l 689 740 l 689 844 l 31 844 l 31 718 l 503 718 l 11 102 l 11 0 l 699 0 l 699 125 z "},"[":{"ha":256,"x_min":0,"x_max":0,"o":"m 382 909 l 382 1017 l 60 1017 l 60 -181 l 382 -181 l 382 -72 l 196 -72 l 196 909 z "},"\\":{"ha":528,"x_min":0,"x_max":0,"o":"m 130 844 l 3 844 l 397 0 l 523 0 z "},"]":{"ha":257,"x_min":0,"x_max":0,"o":"m -125 1031 l -125 923 l 59 923 l 59 -58 l -125 -58 l -125 -167 l 197 -167 l 197 1031 z "},"_":{"ha":626,"x_min":0,"x_max":0,"o":"m 14 472 l 14 369 l 612 369 l 612 472 z "},"a":{"ha":642,"x_min":0,"x_max":0,"o":"m 315 658 b 51 457 174 658 67 592 l 168 457 b 315 548 178 511 218 548 b 468 414 429 548 468 504 l 468 375 b 29 166 91 404 29 299 b 247 -21 29 43 116 -21 b 467 81 375 -21 441 44 l 467 -3 l 593 -3 l 593 414 b 315 658 594 599 465 658 z m 468 178 b 274 78 434 120 370 78 b 158 176 201 78 158 111 b 468 286 158 276 240 299 z "},"b":{"ha":694,"x_min":0,"x_max":0,"o":"m 381 658 b 180 556 289 658 223 617 l 180 841 l 54 841 l 54 -3 l 180 -3 l 180 82 b 381 -21 223 20 289 -21 b 665 318 541 -21 665 101 b 381 658 665 536 541 658 z m 356 89 b 162 318 225 89 162 185 b 356 548 162 452 224 548 b 548 318 488 548 548 454 b 356 89 548 183 487 89 z "},"c":{"ha":665,"x_min":0,"x_max":0,"o":"m 342 96 b 144 325 196 96 144 213 b 342 555 144 438 196 555 b 523 407 453 555 508 479 l 641 407 b 342 665 615 578 490 665 b 28 325 182 665 28 562 b 342 -14 28 88 182 -14 b 641 244 490 -14 615 73 l 523 244 b 342 96 508 172 453 96 z "},"d":{"ha":693,"x_min":0,"x_max":0,"o":"m 513 841 l 513 556 b 313 658 470 617 404 658 b 29 318 153 658 29 536 b 313 -21 29 101 153 -21 b 513 82 404 -21 470 20 l 513 -3 l 639 -3 l 639 841 z m 337 89 b 146 318 206 89 146 183 b 337 548 146 454 204 548 b 532 318 470 548 532 452 b 337 89 532 185 468 89 z "},"e":{"ha":661,"x_min":0,"x_max":0,"o":"m 335 665 b 28 325 178 665 28 555 b 337 -14 28 91 181 -14 b 618 202 484 -14 590 71 l 507 202 b 337 96 489 156 444 96 b 141 278 222 96 156 168 l 633 278 b 335 665 647 544 508 665 z m 145 386 b 335 555 164 488 234 555 b 520 386 445 555 504 488 z "},"f":{"ha":379,"x_min":0,"x_max":0,"o":"m 392 766 l 392 882 b 299 890 363 887 336 890 b 104 643 143 890 104 774 l 8 643 l 8 529 l 104 529 l 104 0 l 230 0 l 230 529 l 378 529 l 378 643 l 230 643 b 392 766 230 757 264 780 z "},"g":{"ha":694,"x_min":0,"x_max":0,"o":"m 514 652 l 514 558 b 313 672 474 626 409 672 b 29 327 154 672 29 558 b 313 -4 29 97 154 -4 b 514 97 409 -4 474 35 l 514 56 b 322 -133 514 -70 475 -133 b 154 -45 203 -133 162 -87 l 37 -45 b 331 -246 49 -178 160 -246 b 640 75 488 -246 640 -196 l 640 652 z m 337 101 b 146 327 220 101 146 179 b 337 552 146 475 219 552 b 516 327 457 552 516 472 b 337 101 516 182 455 101 z "},"h":{"ha":654,"x_min":0,"x_max":0,"o":"m 388 661 b 179 544 274 661 204 586 l 179 844 l 53 844 l 53 0 l 179 0 l 179 371 b 332 540 179 473 233 540 b 482 371 432 540 482 480 l 482 0 l 608 0 l 608 416 b 388 661 608 565 530 661 z "},"i":{"ha":232,"x_min":0,"x_max":0,"o":"m 178 0 l 178 643 l 52 643 l 52 0 z m 115 726 b 188 798 155 726 188 758 b 115 870 188 838 155 870 b 43 798 75 870 43 838 b 115 726 43 758 75 726 z "},"j":{"ha":236,"x_min":0,"x_max":0,"o":"m 55 22 b -53 -85 55 -55 45 -91 l -53 -207 b 12 -213 -29 -210 -15 -213 b 181 22 165 -213 181 -86 l 181 654 l 55 654 l 55 22 z m 117 737 b 189 809 157 737 189 769 b 117 881 189 849 157 881 b 44 809 77 881 44 849 b 117 737 44 769 77 737 z "},"k":{"ha":632,"x_min":0,"x_max":0,"o":"m 387 388 l 619 643 l 461 643 l 180 330 l 180 844 l 53 844 l 53 0 l 180 0 l 180 162 l 298 292 l 483 0 l 632 0 z "},"l":{"ha":232,"x_min":0,"x_max":0,"o":"m 179 0 l 179 844 l 53 844 l 53 0 z "},"m":{"ha":1008,"x_min":0,"x_max":0,"o":"m 749 661 b 544 549 640 661 572 592 b 358 661 514 620 452 661 b 179 549 251 661 199 591 l 179 643 l 53 643 l 53 0 l 179 0 l 179 371 b 313 540 179 468 218 540 b 443 371 408 540 443 480 l 443 0 l 569 0 l 569 371 b 703 540 569 468 608 540 b 833 371 799 540 833 480 l 833 0 l 960 0 l 960 416 b 749 661 960 565 892 661 z "},"n":{"ha":654,"x_min":0,"x_max":0,"o":"m 388 661 b 179 544 274 661 204 586 l 179 643 l 53 643 l 53 0 l 179 0 l 179 371 b 332 540 179 473 233 540 b 482 371 432 540 482 480 l 482 0 l 608 0 l 608 416 b 388 661 608 565 530 661 z "},"o":{"ha":682,"x_min":0,"x_max":0,"o":"m 340 665 b 28 325 180 665 28 562 b 340 -14 28 88 180 -14 b 654 325 500 -14 654 88 b 340 665 654 562 500 665 z m 340 96 b 143 325 194 96 143 213 b 340 555 143 438 194 555 b 537 325 487 555 537 438 b 340 96 537 213 487 96 z "},"p":{"ha":693,"x_min":0,"x_max":0,"o":"m 380 672 b 180 569 289 672 223 631 l 180 654 l 54 654 l 54 -190 l 180 -190 l 180 96 b 380 -7 223 34 289 -7 b 664 332 540 -7 664 115 b 380 672 664 550 540 672 z m 355 103 b 161 332 223 103 161 199 b 355 562 161 466 224 562 b 547 332 486 562 547 468 b 355 103 547 197 488 103 z "},"q":{"ha":694,"x_min":0,"x_max":0,"o":"m 514 654 l 514 569 b 313 672 471 631 405 672 b 29 332 154 672 29 550 b 313 -7 29 115 154 -7 b 514 96 405 -7 471 34 l 514 -190 l 640 -190 l 640 654 z m 337 103 b 146 332 205 103 146 197 b 337 562 146 468 206 562 b 533 332 469 562 533 466 b 337 103 533 199 470 103 z "},"r":{"ha":425,"x_min":0,"x_max":0,"o":"m 361 661 b 180 522 243 661 204 569 l 180 643 l 53 643 l 53 0 l 180 0 l 180 327 b 333 521 180 427 195 521 b 417 509 368 521 396 516 l 421 509 l 421 656 b 361 661 400 660 386 661 z "},"s":{"ha":636,"x_min":0,"x_max":0,"o":"m 365 387 b 160 480 268 407 160 415 b 308 562 160 530 198 562 b 462 471 425 562 462 511 l 579 471 b 310 672 579 590 485 672 b 47 473 149 672 47 602 b 251 289 47 358 109 320 b 481 186 390 258 481 257 b 330 105 481 138 441 105 b 156 207 215 105 156 137 l 26 207 b 319 -7 26 61 153 -7 b 607 205 502 -7 607 56 b 365 387 607 332 520 356 z "},"t":{"ha":422,"x_min":0,"x_max":0,"o":"m 402 638 l 237 638 l 237 805 l 111 805 l 111 638 l 4 638 l 4 525 l 111 525 l 111 236 b 330 -14 111 66 164 -14 b 402 -3 355 -14 383 -9 l 402 113 b 237 236 274 97 237 128 l 237 525 l 402 525 z "},"u":{"ha":656,"x_min":0,"x_max":0,"o":"m 475 640 l 475 269 b 321 100 475 167 421 100 b 172 269 222 100 172 160 l 172 640 l 46 640 l 46 224 b 266 -21 46 75 124 -21 b 475 96 380 -21 449 54 l 475 -3 l 601 -3 l 601 640 z "},"v":{"ha":617,"x_min":0,"x_max":0,"o":"m 486 643 l 309 145 l 130 643 l -3 643 l 242 0 l 374 0 l 619 643 z "},"w":{"ha":975,"x_min":0,"x_max":0,"o":"m 841 643 l 694 171 l 544 643 l 430 643 l 280 171 l 133 643 l 0 643 l 215 0 l 338 0 l 486 465 l 636 0 l 759 0 l 974 643 z "},"x":{"ha":632,"x_min":0,"x_max":0,"o":"m 399 326 l 619 643 l 464 643 l 316 418 l 168 643 l 14 643 l 234 326 l -3 0 l 153 0 l 316 233 l 480 0 l 634 0 z "},"y":{"ha":615,"x_min":0,"x_max":0,"o":"m 485 650 l 309 186 l 128 650 l -4 650 l 250 30 l 165 -194 l 290 -194 l 618 650 z "},"z":{"ha":589,"x_min":0,"x_max":0,"o":"m 195 125 l 556 523 l 556 642 l 39 642 l 39 517 l 381 517 l 19 119 l 19 0 l 565 0 l 565 125 z "}," ":{"ha":342,"x_min":0,"x_max":0,"o":""},"¢":{"ha":733,"x_min":0,"x_max":0,"o":"m 411 192 l 411 645 b 556 500 498 630 542 564 l 674 500 b 411 756 650 657 542 743 l 411 840 l 342 840 l 342 756 b 60 418 195 743 60 640 b 342 81 60 197 195 94 l 342 -4 l 411 -4 l 411 81 b 674 336 542 94 650 180 l 556 336 b 411 192 542 272 498 206 z m 177 418 b 342 646 177 522 222 630 l 342 190 b 177 418 222 206 177 315 z "},"£":{"ha":729,"x_min":0,"x_max":0,"o":"m 659 155 b 544 112 629 128 597 112 b 314 152 462 112 408 152 b 147 99 250 152 194 127 l 145 102 b 244 322 214 164 244 224 b 242 360 244 335 243 348 l 475 360 l 475 440 l 229 440 b 206 585 218 487 206 528 b 386 758 206 687 259 758 b 564 580 491 758 564 691 l 673 580 b 383 862 670 742 570 862 b 89 594 224 862 89 774 b 123 440 89 531 105 484 l 39 440 l 39 360 l 152 360 b 160 293 157 340 160 318 b 39 101 160 213 107 149 l 96 -18 b 266 52 121 1 182 52 b 552 -16 392 52 440 -16 b 700 45 641 -16 677 22 z "},"¥":{"ha":804,"x_min":0,"x_max":0,"o":"m 797 844 l 644 844 l 402 439 l 160 844 l 7 844 l 293 384 l 125 384 l 125 304 l 339 304 l 339 235 l 125 235 l 125 155 l 339 155 l 339 0 l 465 0 l 465 155 l 679 155 l 679 235 l 465 235 l 465 304 l 679 304 l 679 384 l 511 384 z "},"©":{"ha":939,"x_min":0,"x_max":0,"o":"m 469 857 b 39 418 228 857 39 669 b 469 -21 39 167 228 -21 b 899 418 711 -21 899 167 b 469 857 899 669 711 857 z m 469 36 b 94 418 271 36 94 195 b 469 800 94 641 271 800 b 844 418 668 800 844 641 b 469 36 844 195 668 36 z m 471 576 b 596 461 554 576 586 517 l 662 461 b 471 637 645 581 564 637 b 275 418 372 637 275 575 b 471 199 275 261 372 199 b 662 374 564 199 645 255 l 596 374 b 471 260 586 319 554 260 b 339 418 385 260 339 321 b 471 576 339 514 385 576 z "},"­":{"ha":0,"x_min":0,"x_max":0,"o":""},"®":{"ha":931,"x_min":0,"x_max":0,"o":"m 465 857 b 39 418 226 857 39 669 b 465 -21 39 167 226 -21 b 890 418 703 -21 890 167 b 465 857 890 669 703 857 z m 465 36 b 92 418 268 36 92 195 b 465 800 92 641 268 800 b 837 418 661 800 837 641 b 465 36 837 195 661 36 z m 644 486 b 510 627 644 570 602 627 l 303 627 l 303 192 l 368 192 l 368 345 l 489 345 b 501 346 493 345 497 346 l 582 192 l 657 192 l 565 359 b 644 486 618 380 644 426 z m 497 409 l 368 409 l 368 562 l 497 562 b 578 486 550 562 578 539 b 497 409 578 435 548 409 z "},"°":{"ha":415,"x_min":0,"x_max":0,"o":"m 206 844 b 21 658 100 844 21 763 b 206 471 21 553 100 471 b 393 658 314 471 393 553 b 206 844 393 763 314 844 z m 206 552 b 100 658 145 552 100 596 b 206 764 100 719 145 764 b 314 658 269 764 314 719 b 206 552 314 596 269 552 z "},"À":{"ha":814,"x_min":0,"x_max":0,"o":"m 684 0 l 821 0 l 489 844 l 325 844 l -7 0 l 129 0 l 201 188 l 612 188 z m 374 1079 l 241 1079 l 368 923 l 450 923 z m 249 313 l 407 727 l 565 313 z "},"Á":{"ha":947,"x_min":0,"x_max":0,"o":"m 751 0 l 887 0 l 555 844 l 392 844 l 60 0 l 196 0 l 268 188 l 678 188 z m 316 314 l 474 727 l 631 314 z m 506 1079 l 431 924 l 512 924 l 639 1079 z "},"Â":{"ha":947,"x_min":0,"x_max":0,"o":"m 751 0 l 887 0 l 555 843 l 392 843 l 60 0 l 196 0 l 268 188 l 678 188 z m 670 923 l 538 1078 l 408 1078 l 276 923 l 383 923 l 474 1034 l 563 923 z m 316 313 l 474 726 l 631 313 z "},"Ã":{"ha":947,"x_min":0,"x_max":0,"o":"m 751 -1 l 887 -1 l 555 843 l 392 843 l 60 -1 l 196 -1 l 268 187 l 678 187 z m 602 1068 b 560 1003 602 1038 596 1003 b 385 1073 504 1003 465 1073 b 278 935 314 1073 278 1014 l 345 935 b 390 997 345 961 356 997 b 567 930 452 997 487 930 b 670 1068 645 930 670 997 z m 316 313 l 474 726 l 631 313 z "},"Ä":{"ha":947,"x_min":0,"x_max":0,"o":"m 751 0 l 887 0 l 555 843 l 392 843 l 60 0 l 196 0 l 268 188 l 678 188 z m 366 1043 b 304 980 332 1043 304 1015 b 366 917 304 945 332 917 b 426 980 400 917 426 945 b 366 1043 426 1015 400 1043 z m 316 313 l 474 726 l 631 313 z m 581 1043 b 520 980 547 1043 520 1015 b 581 917 520 945 547 917 b 642 980 615 917 642 945 b 581 1043 642 1015 615 1043 z "},"Å":{"ha":947,"x_min":0,"x_max":0,"o":"m 751 0 l 887 0 l 555 844 l 392 844 l 60 0 l 196 0 l 268 188 l 678 188 z m 316 313 l 474 727 l 631 313 z m 475 1155 b 350 1030 404 1155 350 1101 b 475 906 350 961 404 906 b 598 1030 544 906 598 961 b 475 1155 598 1101 544 1155 z m 475 965 b 408 1030 435 965 408 994 b 475 1097 408 1068 435 1097 b 540 1030 514 1097 540 1068 b 475 965 540 994 514 965 z "},"Æ":{"ha":1331,"x_min":0,"x_max":0,"o":"m 1271 126 l 797 126 l 797 370 l 1232 370 l 1232 497 l 797 497 l 797 719 l 1261 719 l 1261 844 l 518 844 l 60 0 l 196 0 l 293 188 l 670 188 l 670 0 l 1271 0 z m 359 315 l 569 719 l 670 719 l 670 315 z "},"Ç":{"ha":894,"x_min":0,"x_max":0,"o":"m 453 116 b 189 432 280 116 189 238 b 453 747 189 626 280 747 b 702 519 619 747 682 630 l 835 519 b 453 871 801 757 640 871 b 60 432 253 871 60 744 b 423 -7 60 134 235 5 l 384 -69 l 384 -107 b 536 -149 499 -93 536 -102 b 366 -186 536 -198 476 -215 l 366 -254 b 467 -269 383 -260 434 -269 b 622 -148 563 -269 622 -231 b 452 -55 622 -38 523 -34 l 482 -7 b 835 344 656 5 803 119 l 702 344 b 453 116 682 233 619 116 z "},"É":{"ha":719,"x_min":0,"x_max":0,"o":"m 660 126 l 186 126 l 186 370 l 621 370 l 621 497 l 186 497 l 186 719 l 651 719 l 651 844 l 60 844 l 60 0 l 660 0 z m 382 1079 l 307 924 l 389 924 l 515 1079 z "},"Ê":{"ha":719,"x_min":0,"x_max":0,"o":"m 660 125 l 186 125 l 186 370 l 621 370 l 621 496 l 186 496 l 186 718 l 651 718 l 651 843 l 60 843 l 60 0 l 660 0 z m 557 923 l 425 1078 l 295 1078 l 163 923 l 271 923 l 361 1034 l 450 923 z "},"Ë":{"ha":719,"x_min":0,"x_max":0,"o":"m 660 125 l 186 125 l 186 370 l 621 370 l 621 496 l 186 496 l 186 718 l 651 718 l 651 843 l 60 843 l 60 0 l 660 0 z m 253 1043 b 192 980 219 1043 192 1015 b 253 917 192 945 219 917 b 314 980 287 917 314 945 b 253 1043 314 1015 287 1043 z m 468 1043 b 407 980 435 1043 407 1015 b 468 917 407 945 435 917 b 529 980 502 917 529 945 b 468 1043 529 1015 502 1043 z "},"Í":{"ha":350,"x_min":0,"x_max":0,"o":"m 60 844 l 60 0 l 186 0 l 186 844 z m 157 1079 l 81 924 l 163 924 l 290 1079 z "},"Î":{"ha":514,"x_min":0,"x_max":0,"o":"m 454 923 l 322 1078 l 192 1078 l 60 923 l 167 923 l 257 1034 l 347 923 z m 194 843 l 194 0 l 320 0 l 320 843 z "},"Ï":{"ha":457,"x_min":0,"x_max":0,"o":"m 121 1043 b 60 980 87 1043 60 1015 b 121 917 60 945 87 917 b 182 980 155 917 182 945 b 121 1043 182 1015 155 1043 z m 165 843 l 165 0 l 291 0 l 291 843 z m 336 1043 b 275 980 303 1043 275 1015 b 336 917 275 945 302 917 b 397 980 370 917 397 945 b 336 1043 397 1015 370 1043 z "},"Ð":{"ha":935,"x_min":0,"x_max":0,"o":"m 452 844 l 157 844 l 157 474 l 60 474 l 60 370 l 157 370 l 157 0 l 452 0 b 875 422 683 0 875 94 b 452 844 875 750 683 844 z m 437 126 l 283 126 l 283 370 l 511 370 l 511 474 l 283 474 l 283 719 l 437 719 b 746 422 633 719 746 639 b 437 126 746 205 633 126 z "},"Ñ":{"ha":828,"x_min":0,"x_max":0,"o":"m 643 843 l 643 176 l 210 843 l 60 843 l 60 -1 l 187 -1 l 187 666 l 618 -1 l 768 -1 l 768 843 z m 542 1068 b 500 1003 542 1038 537 1003 b 326 1073 445 1003 406 1073 b 218 935 254 1073 218 1014 l 286 935 b 330 997 286 961 296 997 b 507 930 393 997 427 930 b 611 1068 585 930 611 997 z "},"Ó":{"ha":946,"x_min":0,"x_max":0,"o":"m 474 869 b 60 431 249 869 60 722 b 474 -9 60 139 249 -9 b 886 431 697 -9 886 139 b 474 869 886 722 697 869 z m 473 115 b 190 431 291 115 190 243 b 473 745 190 617 291 745 b 756 431 655 745 756 617 b 473 115 756 243 655 115 z m 505 1087 l 429 932 l 511 932 l 638 1087 z "},"Ô":{"ha":946,"x_min":0,"x_max":0,"o":"m 474 873 b 60 434 249 873 60 726 b 474 -6 60 142 249 -6 b 886 434 697 -6 886 142 b 474 873 886 726 697 873 z m 474 118 b 190 434 291 118 190 246 b 474 748 190 621 291 748 b 756 434 655 748 756 621 b 474 118 756 246 655 118 z m 670 935 l 538 1091 l 408 1091 l 276 935 l 383 935 l 474 1046 l 563 935 z "},"Õ":{"ha":946,"x_min":0,"x_max":0,"o":"m 474 870 b 60 431 249 870 60 723 b 474 -9 60 139 249 -9 b 886 431 697 -9 886 139 b 474 870 886 723 697 870 z m 473 115 b 190 431 291 115 190 243 b 473 745 190 618 291 745 b 756 431 655 745 756 618 b 473 115 756 243 655 115 z m 601 1078 b 559 1013 601 1048 595 1013 b 384 1083 503 1013 464 1083 b 277 944 313 1083 277 1024 l 344 944 b 389 1007 344 971 355 1007 b 566 940 451 1007 486 940 b 669 1078 644 940 669 1007 z "},"Ö":{"ha":946,"x_min":0,"x_max":0,"o":"m 474 873 b 60 434 249 873 60 726 b 474 -6 60 142 249 -6 b 886 434 697 -6 886 142 b 474 873 886 726 697 873 z m 474 118 b 190 434 291 118 190 246 b 474 748 190 621 291 748 b 756 434 655 748 756 621 b 474 118 756 246 655 118 z m 366 1055 b 304 993 332 1055 304 1028 b 366 929 304 958 332 929 b 426 993 400 929 426 958 b 366 1055 426 1028 400 1055 z m 581 1055 b 520 993 547 1055 520 1028 b 581 929 520 958 547 929 b 641 993 615 929 641 958 b 581 1055 641 1028 615 1055 z "},"×":{"ha":486,"x_min":0,"x_max":0,"o":"m 459 571 l 387 644 l 243 500 l 99 644 l 26 571 l 170 428 l 26 283 l 99 211 l 243 355 l 387 211 l 459 283 l 316 428 z "},"Ø":{"ha":944,"x_min":0,"x_max":0,"o":"m 797 709 l 869 787 l 815 856 l 736 770 b 472 857 664 828 572 857 b 60 418 249 857 60 710 b 148 128 60 297 92 199 l 76 50 l 130 -19 l 208 66 b 472 -20 281 9 373 -20 b 885 418 696 -20 885 127 b 797 709 885 540 852 638 z m 189 418 b 472 733 189 606 291 733 b 651 676 545 733 605 714 l 237 225 b 189 418 205 277 189 342 z m 472 104 b 294 160 400 104 340 123 l 708 611 b 756 418 739 559 756 494 b 472 104 756 230 654 104 z "},"Ú":{"ha":800,"x_min":0,"x_max":0,"o":"m 613 852 l 613 356 b 400 115 613 184 548 115 b 186 356 251 115 186 184 l 186 852 l 60 852 l 60 345 b 400 -9 60 50 226 -9 b 740 345 573 -9 740 50 l 740 852 z m 433 1087 l 357 932 l 439 932 l 566 1087 z "},"Û":{"ha":800,"x_min":0,"x_max":0,"o":"m 613 856 l 613 359 b 400 118 613 187 548 118 b 186 359 251 118 186 187 l 186 856 l 60 856 l 60 348 b 400 -6 60 53 226 -6 b 740 348 573 -6 740 53 l 740 856 z m 597 935 l 465 1091 l 335 1091 l 203 935 l 311 935 l 401 1046 l 490 935 z "},"Ü":{"ha":800,"x_min":0,"x_max":0,"o":"m 613 856 l 613 359 b 400 118 613 187 548 118 b 186 359 251 118 186 187 l 186 856 l 60 856 l 60 348 b 400 -6 60 53 226 -6 b 740 348 573 -6 740 53 l 740 856 z m 293 1055 b 232 993 259 1055 232 1028 b 293 929 232 958 259 929 b 354 993 327 929 354 958 b 293 1055 354 1028 327 1055 z m 508 1055 b 447 993 475 1055 447 1028 b 508 929 447 958 475 929 b 569 993 542 929 569 958 b 508 1055 569 1028 542 1055 z "},"Ý":{"ha":910,"x_min":0,"x_max":0,"o":"m 698 852 l 455 447 l 212 852 l 60 852 l 393 320 l 393 9 l 519 9 l 519 320 l 850 852 z m 488 1087 l 412 932 l 494 932 l 621 1087 z "},"ß":{"ha":789,"x_min":0,"x_max":0,"o":"m 569 457 b 665 627 622 481 665 529 b 367 858 665 788 533 858 b 60 530 194 858 60 781 l 60 -2 l 175 -2 l 175 519 b 364 754 175 662 219 754 b 553 617 520 754 553 677 b 422 489 553 546 522 489 l 323 489 l 323 387 l 432 387 b 610 248 574 387 610 329 b 446 89 610 152 566 89 b 323 105 394 89 338 101 l 323 -3 b 455 -21 358 -11 408 -21 b 730 241 631 -21 730 72 b 569 457 730 383 655 437 z "},"à":{"ha":642,"x_min":0,"x_max":0,"o":"m 315 658 b 51 456 174 658 67 591 l 168 456 b 315 548 178 511 218 548 b 468 414 429 548 468 503 l 468 374 b 29 166 91 403 29 299 b 247 -21 29 43 116 -21 b 468 80 375 -21 441 44 l 468 -3 l 594 -3 l 594 414 b 315 658 594 599 465 658 z m 468 178 b 274 78 434 120 370 78 b 158 176 201 78 158 111 b 468 285 158 276 240 299 z m 299 883 l 165 883 l 292 728 l 374 728 z "},"á":{"ha":683,"x_min":0,"x_max":0,"o":"m 345 658 b 81 456 204 658 98 591 l 199 456 b 345 548 208 511 248 548 b 498 414 459 548 498 503 l 498 374 b 60 166 121 403 60 299 b 278 -21 60 43 147 -21 b 498 80 406 -21 471 44 l 498 -3 l 624 -3 l 624 414 b 345 658 624 599 496 658 z m 498 178 b 305 78 464 120 401 78 b 189 176 232 78 189 111 b 498 285 189 276 271 299 z m 374 883 l 298 728 l 380 728 l 507 883 z "},"â":{"ha":683,"x_min":0,"x_max":0,"o":"m 345 657 b 81 456 204 657 98 591 l 199 456 b 345 548 208 510 248 548 b 498 414 459 548 498 503 l 498 374 b 60 166 121 403 60 298 b 278 -21 60 43 147 -21 b 498 80 406 -21 471 44 l 498 -3 l 624 -3 l 624 414 b 345 657 624 598 496 657 z m 549 727 l 417 883 l 287 883 l 155 727 l 263 727 l 353 838 l 442 727 z m 498 178 b 305 78 464 120 401 78 b 189 175 232 78 189 110 b 498 285 189 275 271 298 z "},"ã":{"ha":683,"x_min":0,"x_max":0,"o":"m 345 658 b 81 457 204 658 98 592 l 199 457 b 345 549 208 511 248 549 b 498 415 459 549 498 504 l 498 375 b 60 167 121 404 60 299 b 278 -20 60 44 147 -20 b 498 81 406 -20 471 45 l 498 -2 l 624 -2 l 624 415 b 345 658 624 599 496 658 z m 480 874 b 438 809 480 844 475 809 b 264 879 382 809 343 879 b 156 740 192 879 156 820 l 224 740 b 268 803 224 767 234 803 b 445 736 330 803 365 736 b 548 874 523 736 548 803 z m 498 179 b 305 79 464 121 401 79 b 189 176 232 79 189 111 b 498 286 189 276 271 299 z "},"ä":{"ha":683,"x_min":0,"x_max":0,"o":"m 345 657 b 81 456 204 657 98 591 l 199 456 b 345 548 208 510 248 548 b 498 414 459 548 498 503 l 498 374 b 60 166 121 403 60 298 b 278 -21 60 43 147 -21 b 498 80 406 -21 471 44 l 498 -3 l 624 -3 l 624 414 b 345 657 624 598 496 657 z m 498 178 b 305 78 464 120 401 78 b 189 175 232 78 189 110 b 498 285 189 275 271 298 z m 255 851 b 194 786 222 851 194 822 b 255 721 194 750 222 721 b 316 786 289 721 316 750 b 255 851 316 822 289 851 z m 470 851 b 409 786 437 851 409 822 b 470 721 409 750 437 721 b 531 786 504 721 531 750 b 470 851 531 822 504 851 z "},"å":{"ha":683,"x_min":0,"x_max":0,"o":"m 345 658 b 81 456 204 658 98 591 l 199 456 b 345 548 208 511 248 548 b 498 414 459 548 498 503 l 498 374 b 60 166 121 403 60 299 b 278 -21 60 43 147 -21 b 498 80 406 -21 471 44 l 498 -3 l 624 -3 l 624 414 b 345 658 624 599 496 658 z m 498 178 b 305 78 464 120 401 78 b 189 176 232 78 189 111 b 498 285 189 276 271 299 z m 353 962 b 228 836 282 962 228 907 b 353 711 228 766 282 711 b 477 836 422 711 477 766 b 353 962 477 907 422 962 z m 353 770 b 286 836 313 770 286 799 b 353 903 286 874 313 903 b 418 836 393 903 418 874 b 353 770 418 799 393 770 z "},"æ":{"ha":1178,"x_min":0,"x_max":0,"o":"m 818 657 b 586 544 727 657 642 619 b 346 657 543 626 453 657 b 82 455 205 657 99 590 l 199 455 b 347 548 209 509 249 548 b 498 414 460 548 498 502 l 498 373 b 60 165 122 402 60 297 b 297 -21 60 43 163 -21 b 565 124 409 -21 512 24 b 821 -21 619 25 717 -21 b 1101 194 967 -21 1073 62 l 991 194 b 821 88 972 148 927 88 b 625 270 705 88 639 160 l 1117 270 b 818 657 1131 537 992 657 z m 498 188 b 305 77 468 120 403 77 b 189 174 233 77 189 109 b 498 284 189 275 271 297 z m 628 378 b 818 548 648 479 716 548 b 1004 378 928 548 988 479 z "},"ç":{"ha":733,"x_min":0,"x_max":0,"o":"m 374 98 b 175 327 228 98 175 215 b 374 557 175 440 228 557 b 555 409 485 557 539 481 l 673 409 b 374 666 647 580 522 666 b 60 327 214 666 60 564 b 335 -10 60 110 190 6 l 295 -74 l 295 -111 b 447 -153 410 -98 447 -106 b 277 -190 447 -203 387 -219 l 277 -258 b 378 -274 294 -264 344 -274 b 534 -152 474 -274 534 -235 b 363 -59 534 -42 434 -39 l 393 -11 b 673 246 532 -4 648 81 l 555 246 b 374 98 539 174 485 98 z "},"è":{"ha":661,"x_min":0,"x_max":0,"o":"m 335 679 b 28 339 178 679 28 569 b 337 0 28 105 181 0 b 618 216 484 0 590 84 l 507 216 b 337 110 489 170 444 110 b 141 292 222 110 156 182 l 633 292 b 335 679 647 558 508 679 z m 145 400 b 335 569 164 501 234 569 b 520 400 445 569 504 501 z m 319 904 l 186 904 l 313 748 l 394 748 z "},"é":{"ha":726,"x_min":0,"x_max":0,"o":"m 367 679 b 60 339 210 679 60 569 b 369 0 60 105 213 0 b 650 216 516 0 622 84 l 539 216 b 369 110 521 170 476 110 b 173 292 254 110 188 182 l 665 292 b 367 679 679 558 540 679 z m 176 400 b 367 569 196 501 266 569 b 552 400 477 569 536 501 z m 396 904 l 320 748 l 402 748 l 529 904 z "},"ê":{"ha":726,"x_min":0,"x_max":0,"o":"m 367 672 b 60 333 210 672 60 563 b 369 -6 60 99 213 -6 b 650 210 516 -6 622 78 l 539 210 b 369 104 521 164 476 104 b 173 286 254 104 188 176 l 665 286 b 367 672 679 552 540 673 z m 560 742 l 427 898 l 297 898 l 165 742 l 273 742 l 363 853 l 452 742 z m 177 394 b 367 563 196 495 266 563 b 552 394 477 563 536 495 z "},"ë":{"ha":726,"x_min":0,"x_max":0,"o":"m 367 672 b 60 333 210 672 60 563 b 369 -6 60 99 213 -6 b 650 210 516 -6 622 78 l 539 210 b 369 104 521 164 476 104 b 173 286 254 104 188 176 l 665 286 b 367 672 679 552 540 673 z m 177 394 b 367 563 196 495 266 563 b 552 394 477 563 536 495 z m 255 866 b 194 802 222 866 194 838 b 255 736 194 766 222 736 b 316 802 289 736 316 766 b 255 866 316 838 289 866 z m 470 866 b 409 802 437 866 409 838 b 470 736 409 766 437 736 b 531 802 504 736 531 766 b 470 866 531 838 504 866 z "},"ì":{"ha":233,"x_min":0,"x_max":0,"o":"m 85 886 l -49 886 l 78 730 l 160 730 z m 54 0 l 180 0 l 180 642 l 54 642 z "},"í":{"ha":349,"x_min":0,"x_max":0,"o":"m 60 0 l 186 0 l 186 642 l 60 642 z m 156 886 l 80 730 l 162 730 l 289 886 z "},"î":{"ha":514,"x_min":0,"x_max":0,"o":"m 454 742 l 322 898 l 192 898 l 60 742 l 167 742 l 257 853 l 346 742 z m 194 12 l 320 12 l 320 654 l 194 654 z "},"ï":{"ha":457,"x_min":0,"x_max":0,"o":"m 121 866 b 60 802 87 866 60 838 b 121 736 60 766 87 736 b 182 802 155 736 182 766 b 121 866 182 838 155 866 z m 165 12 l 291 12 l 291 654 l 165 654 z m 336 866 b 275 802 302 866 275 838 b 336 736 275 766 302 736 b 397 802 370 736 397 766 b 336 866 397 838 370 866 z "},"ð":{"ha":746,"x_min":0,"x_max":0,"o":"m 459 804 l 534 864 l 499 925 l 395 839 b 151 892 313 877 227 892 l 137 796 b 303 767 185 795 244 786 l 194 678 l 229 619 l 375 737 b 571 466 466 689 546 605 b 330 579 540 515 461 579 b 60 299 183 579 60 496 b 371 -8 60 75 210 -8 b 687 352 560 -8 687 87 b 459 804 687 581 586 723 z m 364 116 b 181 293 228 116 181 197 b 364 466 181 390 230 466 b 555 293 498 466 555 388 b 364 116 555 198 508 116 z "},"ñ":{"ha":675,"x_min":0,"x_max":0,"o":"m 395 670 b 186 553 281 670 211 595 l 186 651 l 60 651 l 60 9 l 186 9 l 186 380 b 339 549 186 481 240 549 b 489 380 439 549 489 489 l 489 9 l 615 9 l 615 425 b 395 670 615 574 537 670 z m 465 885 b 423 820 465 855 460 820 b 249 890 368 820 329 890 b 142 751 178 890 142 831 l 209 751 b 253 814 209 778 220 814 b 430 747 316 814 351 747 b 534 885 508 747 534 814 z "},"ò":{"ha":682,"x_min":0,"x_max":0,"o":"m 340 679 b 28 339 180 679 28 576 b 340 0 28 101 180 0 b 654 339 500 0 654 101 b 340 679 654 576 500 679 z m 340 110 b 143 339 194 110 143 227 b 340 569 143 452 194 569 b 537 339 487 569 537 452 b 340 110 537 227 487 110 z m 318 904 l 184 904 l 311 748 l 393 748 z "},"ó":{"ha":746,"x_min":0,"x_max":0,"o":"m 372 679 b 60 339 212 679 60 576 b 372 0 60 101 212 0 b 685 339 532 0 685 101 b 372 679 685 576 532 679 z m 372 110 b 175 339 226 110 175 227 b 372 569 175 452 226 569 b 569 339 519 569 569 452 b 372 110 569 227 519 110 z m 405 904 l 329 748 l 411 748 l 538 904 z "},"ô":{"ha":746,"x_min":0,"x_max":0,"o":"m 372 673 b 60 333 212 673 60 570 b 372 -6 60 95 212 -6 b 685 333 532 -6 685 95 b 372 673 685 570 532 673 z m 570 742 l 438 898 l 308 898 l 175 742 l 283 742 l 373 853 l 462 742 z m 372 104 b 175 333 226 104 175 221 b 372 563 175 446 226 563 b 569 333 519 563 569 446 b 372 104 569 221 519 104 z "},"õ":{"ha":746,"x_min":0,"x_max":0,"o":"m 372 670 b 60 330 212 670 60 567 b 372 -9 60 92 212 -9 b 685 330 532 -9 685 92 b 372 670 685 567 532 670 z m 372 101 b 175 330 226 101 175 218 b 372 560 175 443 226 560 b 569 330 519 560 569 443 b 372 101 569 218 519 101 z m 500 885 b 458 820 500 855 495 820 b 284 890 403 820 364 890 b 176 751 212 890 176 831 l 244 751 b 288 814 244 778 254 814 b 465 747 351 814 385 747 b 569 885 543 747 569 814 z "},"ö":{"ha":746,"x_min":0,"x_max":0,"o":"m 372 673 b 60 333 212 673 60 570 b 372 -6 60 95 212 -6 b 685 333 532 -6 685 95 b 372 673 685 570 532 673 z m 372 104 b 175 333 226 104 175 221 b 372 563 175 446 226 563 b 569 333 519 563 569 446 b 372 104 569 221 519 104 z m 266 866 b 204 802 232 866 204 838 b 266 736 204 766 232 736 b 326 802 299 736 326 766 b 266 866 326 838 299 866 z m 481 866 b 419 802 447 866 419 838 b 481 736 419 766 447 736 b 541 802 514 736 541 766 b 481 866 541 838 514 866 z "},"÷":{"ha":524,"x_min":0,"x_max":0,"o":"m 7 468 l 7 365 l 516 365 l 516 468 z m 261 590 b 332 661 301 590 332 622 b 261 732 332 700 301 732 b 190 661 221 732 190 700 b 261 590 190 622 221 590 z m 261 244 b 190 173 221 244 190 212 b 261 101 190 134 221 101 b 332 173 301 101 332 134 b 261 244 332 212 301 244 z "},"ø":{"ha":746,"x_min":0,"x_max":0,"o":"m 623 560 l 683 626 l 639 682 l 575 612 b 373 679 519 657 446 679 b 60 340 213 679 60 578 b 123 120 60 246 84 173 l 63 55 l 107 -2 l 171 69 b 373 2 228 22 299 2 b 685 340 532 2 685 103 b 623 560 685 434 662 507 z m 176 341 b 373 571 176 453 227 571 b 498 529 427 571 468 554 l 204 209 b 176 340 185 248 176 295 z m 373 110 b 248 152 319 110 278 126 l 541 472 b 569 340 561 432 569 386 b 373 110 569 227 520 110 z "},"ù":{"ha":656,"x_min":0,"x_max":0,"o":"m 475 660 l 475 289 b 321 121 475 188 421 121 b 172 289 222 121 172 181 l 172 660 l 46 660 l 46 245 b 266 0 46 95 124 0 b 475 117 380 0 449 75 l 475 18 l 601 18 l 601 660 z m 311 904 l 178 904 l 305 748 l 387 748 z "},"ú":{"ha":675,"x_min":0,"x_max":0,"o":"m 489 660 l 489 289 b 335 121 489 188 435 121 b 186 289 236 121 186 181 l 186 660 l 60 660 l 60 245 b 280 0 60 95 138 0 b 489 117 394 0 463 75 l 489 18 l 615 18 l 615 660 z m 370 904 l 294 748 l 376 748 l 503 904 z "},"û":{"ha":675,"x_min":0,"x_max":0,"o":"m 489 654 l 489 283 b 335 114 489 182 435 114 b 186 283 236 114 186 175 l 186 654 l 60 654 l 60 239 b 280 -6 60 89 138 -6 b 489 111 394 -6 463 69 l 489 12 l 615 12 l 615 654 z m 535 742 l 403 898 l 273 898 l 141 742 l 248 742 l 338 853 l 427 742 z "},"ü":{"ha":675,"x_min":0,"x_max":0,"o":"m 489 654 l 489 283 b 335 114 489 182 435 114 b 186 283 236 114 186 175 l 186 654 l 60 654 l 60 239 b 280 -6 60 89 138 -6 b 489 111 394 -6 463 69 l 489 12 l 615 12 l 615 654 z m 231 866 b 169 802 197 866 169 838 b 231 736 169 766 197 736 b 291 802 265 736 291 766 b 231 866 291 838 265 866 z m 446 866 b 384 802 412 866 384 838 b 446 736 384 766 412 736 b 506 802 480 736 506 766 b 446 866 506 838 480 866 z "},"ý":{"ha":742,"x_min":0,"x_max":0,"o":"m 549 651 l 373 187 l 192 651 l 60 651 l 314 32 l 229 -193 l 354 -193 l 681 651 z m 403 895 l 327 739 l 409 739 l 536 895 z "},"ÿ":{"ha":742,"x_min":0,"x_max":0,"o":"m 549 654 l 373 190 l 192 654 l 60 654 l 314 35 l 229 -189 l 354 -189 l 681 654 z m 267 866 b 205 802 233 866 205 838 b 267 736 205 766 233 736 b 327 802 300 736 327 766 b 267 866 327 838 300 866 z m 482 866 b 420 802 448 866 420 838 b 482 736 420 766 448 736 b 542 802 515 736 542 766 b 482 866 542 838 515 866 z "},"Œ":{"ha":1283,"x_min":0,"x_max":0,"o":"m 1224 126 l 750 126 l 750 370 l 1185 370 l 1185 497 l 750 497 l 750 719 l 1214 719 l 1214 844 l 502 844 b 60 422 271 844 60 750 b 502 0 60 94 271 0 l 1224 0 z m 518 126 b 190 422 322 126 190 205 b 518 719 190 639 322 719 l 623 719 l 623 126 z "},"œ":{"ha":1243,"x_min":0,"x_max":0,"o":"m 1182 270 b 884 657 1198 537 1058 657 b 632 523 786 657 690 613 b 372 657 573 614 475 657 b 60 318 213 657 60 555 b 372 -21 60 80 213 -21 b 631 111 474 -21 573 20 b 887 -21 690 20 788 -21 b 1168 194 1034 -21 1139 62 l 1057 194 b 887 88 1039 148 993 88 b 692 270 772 88 706 160 z m 372 88 b 176 318 226 88 176 205 b 372 548 176 430 226 548 b 569 318 519 548 569 430 b 372 88 569 205 519 88 z m 695 378 b 884 548 714 479 783 548 b 1071 378 995 548 1054 479 z "},"Ÿ":{"ha":910,"x_min":0,"x_max":0,"o":"m 698 856 l 455 451 l 212 856 l 60 856 l 393 323 l 393 12 l 519 12 l 519 323 l 850 856 z m 349 1055 b 287 993 315 1055 287 1028 b 349 929 287 958 315 929 b 409 993 382 929 409 958 b 349 1055 409 1028 382 1055 z m 564 1055 b 502 993 530 1055 502 1028 b 564 929 502 958 530 929 b 624 993 597 929 624 958 b 564 1055 624 1028 597 1055 z "},"€":{"ha":953,"x_min":0,"x_max":0,"o":"m 531 109 b 279 309 396 109 310 184 l 591 309 l 591 389 l 268 389 b 267 423 267 401 267 411 b 268 458 267 436 267 446 l 591 458 l 591 538 l 279 538 b 531 738 310 663 396 738 b 780 511 697 738 760 621 l 913 511 b 531 862 880 749 718 862 b 147 538 358 862 189 767 l 26 538 l 26 458 l 138 458 b 138 423 138 446 138 435 b 138 389 138 411 138 401 l 26 389 l 26 309 l 147 309 b 531 -15 189 80 358 -15 b 913 335 718 -15 880 98 l 780 335 b 531 109 760 226 697 109 z "},"™":{"ha":886,"x_min":0,"x_max":0,"o":"m 729 840 l 623 556 l 517 840 l 420 840 l 420 469 l 489 469 l 489 737 l 589 469 l 657 469 l 757 737 l 757 469 l 826 469 l 826 840 z m 60 771 l 174 771 l 174 469 l 243 469 l 243 771 l 357 771 l 357 840 l 60 840 z "},"←":{"ha":1060,"x_min":0,"x_max":0,"o":"m 60 422 l 346 136 l 424 214 l 270 367 l 1000 367 l 1000 477 l 270 477 l 424 631 l 346 708 l 60 422 l 60 422 z "},"→":{"ha":1060,"x_min":0,"x_max":0,"o":"m 1000 415 l 714 701 l 636 624 l 789 470 l 60 470 l 60 360 l 789 360 l 636 207 l 714 129 l 1000 415 l 999 415 z "},"−":{"ha":539,"x_min":0,"x_max":0,"o":"m 14 102 l 14 0 l 524 0 l 524 102 z "},"≈":{"ha":600,"x_min":0,"x_max":0,"o":"m 461 550 b 159 625 354 550 283 625 b 33 573 102 625 67 603 l 33 466 b 147 518 62 496 97 518 b 452 445 252 518 342 445 b 566 485 507 445 546 467 l 566 593 b 461 550 543 571 512 550 z m 159 396 b 33 343 102 396 67 373 l 33 237 b 147 288 62 266 97 288 b 452 215 252 288 342 215 b 566 255 507 215 546 237 l 566 362 b 461 320 543 341 512 320 b 159 396 354 320 283 396 z "}}}
